<mxfile host="app.diagrams.net" modified="2024-04-03T16:48:35.722Z" agent="Mozilla/5.0 (Macintosh; Intel Mac OS X 10_15_7) AppleWebKit/605.1.15 (KHTML, like Gecko) Version/17.4.1 Safari/605.1.15" version="24.1.0" etag="04rywJEDehHAzG1uPvCs" type="github">
  <diagram name="Page-1" id="rvOQ18gAtm0hLchAmF8G">
    <mxGraphModel>
      <root>
        <mxCell id="0" />
        <mxCell id="1" parent="0" />
      </root>
    </mxGraphModel>
  </diagram>
</mxfile>
